<svg width="400" height="400" xmlns="http://www.w3.org/2000/svg">
  <!-- Background -->
  <rect width="400" height="400" fill="white"/>
  
  <!-- Grid lines -->
  <g stroke="#000" stroke-width="1">
    <!-- Vertical thin lines -->
    <line x1="44.44" y1="0" x2="44.44" y2="400"/>
    <line x1="88.88" y1="0" x2="88.88" y2="400"/>
    <line x1="177.76" y1="0" x2="177.76" y2="400"/>
    <line x1="222.20" y1="0" x2="222.20" y2="400"/>
    <line x1="311.08" y1="0" x2="311.08" y2="400"/>
    <line x1="355.52" y1="0" x2="355.52" y2="400"/>
    
    <!-- Horizontal thin lines -->
    <line x1="0" y1="44.44" x2="400" y2="44.44"/>
    <line x1="0" y1="88.88" x2="400" y2="88.88"/>
    <line x1="0" y1="177.76" x2="400" y2="177.76"/>
    <line x1="0" y1="222.20" x2="400" y2="222.20"/>
    <line x1="0" y1="311.08" x2="400" y2="311.08"/>
    <line x1="0" y1="355.52" x2="400" y2="355.52"/>
  </g>
  
  <!-- Thick lines for 3x3 boxes -->
  <g stroke="#000" stroke-width="3">
    <line x1="0" y1="0" x2="400" y2="0"/>
    <line x1="0" y1="133.32" x2="400" y2="133.32"/>
    <line x1="0" y1="266.64" x2="400" y2="266.64"/>
    <line x1="0" y1="400" x2="400" y2="400"/>
    
    <line x1="0" y1="0" x2="0" y2="400"/>
    <line x1="133.32" y1="0" x2="133.32" y2="400"/>
    <line x1="266.64" y1="0" x2="266.64" y2="400"/>
    <line x1="400" y1="0" x2="400" y2="400"/>
  </g>
  
  <!-- Numbers (partial grid - corrected to match complete solution) -->
  <g font-family="Arial, sans-serif" font-size="28" text-anchor="middle" fill="#000">
    <!-- Row 1: 5,3,_,_,7,_,_,_,_ -->
    <text x="22.22" y="35">5</text>
    <text x="66.66" y="35">3</text>
    <text x="200.98" y="35">7</text>
    
    <!-- Row 2: 6,_,_,1,9,5,_,_,_ -->
    <text x="22.22" y="79.44">6</text>
    <text x="155.54" y="79.44">1</text>
    <text x="200.98" y="79.44">9</text>
    <text x="244.42" y="79.44">5</text>
    
    <!-- Row 3: _,9,8,_,_,_,_,6,_ -->
    <text x="66.66" y="123.88">9</text>
    <text x="111.10" y="123.88">8</text>
    <text x="333.30" y="123.88">6</text>
    
    <!-- Row 4: 8,_,_,_,6,_,_,_,3 -->
    <text x="22.22" y="168.32">8</text>
    <text x="200.98" y="168.32">6</text>
    <text x="377.74" y="168.32">3</text>
    
    <!-- Row 5: _,_,6,_,5,3,_,_,1 -->
    <text x="111.10" y="212.76">6</text>
    <text x="200.98" y="212.76">5</text>
    <text x="244.42" y="212.76">3</text>
    <text x="377.74" y="212.76">1</text>
    
    <!-- Row 6: 7,1,3,_,_,_,_,_,_ -->
    <text x="22.22" y="257.20">7</text>
    <text x="66.66" y="257.20">1</text>
    <text x="111.10" y="257.20">3</text>
    
    <!-- Row 7: _,_,_,5,_,_,2,_,_ -->
    <text x="155.54" y="301.64">5</text>
    <text x="288.86" y="301.64">2</text>
    
    <!-- Row 8: _,_,_,4,1,_,_,3,_ -->
    <text x="155.54" y="346.08">4</text>
    <text x="200.98" y="346.08">1</text>
    <text x="333.30" y="346.08">3</text>
    
    <!-- Row 9: _,_,_,_,8,6,1,_,_ -->
    <text x="200.98" y="390.52">8</text>
    <text x="244.42" y="390.52">6</text>
    <text x="288.86" y="390.52">1</text>
  </g>
</svg>