<svg width="400" height="400" xmlns="http://www.w3.org/2000/svg">
  <!-- Background -->
  <rect width="400" height="400" fill="white"/>
  
  <!-- Grid lines -->
  <g stroke="#000" stroke-width="1">
    <!-- Vertical thin lines -->
    <line x1="44.44" y1="0" x2="44.44" y2="400"/>
    <line x1="88.88" y1="0" x2="88.88" y2="400"/>
    <line x1="177.76" y1="0" x2="177.76" y2="400"/>
    <line x1="222.20" y1="0" x2="222.20" y2="400"/>
    <line x1="311.08" y1="0" x2="311.08" y2="400"/>
    <line x1="355.52" y1="0" x2="355.52" y2="400"/>
    
    <!-- Horizontal thin lines -->
    <line x1="0" y1="44.44" x2="400" y2="44.44"/>
    <line x1="0" y1="88.88" x2="400" y2="88.88"/>
    <line x1="0" y1="177.76" x2="400" y2="177.76"/>
    <line x1="0" y1="222.20" x2="400" y2="222.20"/>
    <line x1="0" y1="311.08" x2="400" y2="311.08"/>
    <line x1="0" y1="355.52" x2="400" y2="355.52"/>
  </g>
  
  <!-- Thick lines for 3x3 boxes -->
  <g stroke="#000" stroke-width="3">
    <line x1="0" y1="0" x2="400" y2="0"/>
    <line x1="0" y1="133.32" x2="400" y2="133.32"/>
    <line x1="0" y1="266.64" x2="400" y2="266.64"/>
    <line x1="0" y1="400" x2="400" y2="400"/>
    
    <line x1="0" y1="0" x2="0" y2="400"/>
    <line x1="133.32" y1="0" x2="133.32" y2="400"/>
    <line x1="266.64" y1="0" x2="266.64" y2="400"/>
    <line x1="400" y1="0" x2="400" y2="400"/>
  </g>
  
  <!-- Numbers (complete grid) -->
  <g font-family="Arial, sans-serif" font-size="28" text-anchor="middle" fill="#000">
    <!-- Row 1 -->
    <text x="22.22" y="35">5</text>
    <text x="66.66" y="35">3</text>
    <text x="111.10" y="35">4</text>
    <text x="155.54" y="35">6</text>
    <text x="200.98" y="35">7</text>
    <text x="244.42" y="35">8</text>
    <text x="288.86" y="35">9</text>
    <text x="333.30" y="35">1</text>
    <text x="377.74" y="35">2</text>
    
    <!-- Row 2 -->
    <text x="22.22" y="79.44">6</text>
    <text x="66.66" y="79.44">7</text>
    <text x="111.10" y="79.44">2</text>
    <text x="155.54" y="79.44">1</text>
    <text x="200.98" y="79.44">9</text>
    <text x="244.42" y="79.44">5</text>
    <text x="288.86" y="79.44">3</text>
    <text x="333.30" y="79.44">4</text>
    <text x="377.74" y="79.44">8</text>
    
    <!-- Row 3 -->
    <text x="22.22" y="123.88">1</text>
    <text x="66.66" y="123.88">9</text>
    <text x="111.10" y="123.88">8</text>
    <text x="155.54" y="123.88">3</text>
    <text x="200.98" y="123.88">4</text>
    <text x="244.42" y="123.88">2</text>
    <text x="288.86" y="123.88">5</text>
    <text x="333.30" y="123.88">6</text>
    <text x="377.74" y="123.88">7</text>
    
    <!-- Row 4 -->
    <text x="22.22" y="168.32">8</text>
    <text x="66.66" y="168.32">5</text>
    <text x="111.10" y="168.32">9</text>
    <text x="155.54" y="168.32">7</text>
    <text x="200.98" y="168.32">6</text>
    <text x="244.42" y="168.32">1</text>
    <text x="288.86" y="168.32">4</text>
    <text x="333.30" y="168.32">2</text>
    <text x="377.74" y="168.32">3</text>
    
    <!-- Row 5 -->
    <text x="22.22" y="212.76">4</text>
    <text x="66.66" y="212.76">2</text>
    <text x="111.10" y="212.76">6</text>
    <text x="155.54" y="212.76">8</text>
    <text x="200.98" y="212.76">5</text>
    <text x="244.42" y="212.76">3</text>
    <text x="288.86" y="212.76">7</text>
    <text x="333.30" y="212.76">9</text>
    <text x="377.74" y="212.76">1</text>
    
    <!-- Row 6 -->
    <text x="22.22" y="257.20">7</text>
    <text x="66.66" y="257.20">1</text>
    <text x="111.10" y="257.20">3</text>
    <text x="155.54" y="257.20">9</text>
    <text x="200.98" y="257.20">2</text>
    <text x="244.42" y="257.20">4</text>
    <text x="288.86" y="257.20">8</text>
    <text x="333.30" y="257.20">5</text>
    <text x="377.74" y="257.20">6</text>
    
    <!-- Row 7 -->
    <text x="22.22" y="301.64">9</text>
    <text x="66.66" y="301.64">6</text>
    <text x="111.10" y="301.64">1</text>
    <text x="155.54" y="301.64">5</text>
    <text x="200.98" y="301.64">3</text>
    <text x="244.42" y="301.64">7</text>
    <text x="288.86" y="301.64">2</text>
    <text x="333.30" y="301.64">8</text>
    <text x="377.74" y="301.64">4</text>
    
    <!-- Row 8 -->
    <text x="22.22" y="346.08">2</text>
    <text x="66.66" y="346.08">8</text>
    <text x="111.10" y="346.08">7</text>
    <text x="155.54" y="346.08">4</text>
    <text x="200.98" y="346.08">1</text>
    <text x="244.42" y="346.08">9</text>
    <text x="288.86" y="346.08">6</text>
    <text x="333.30" y="346.08">3</text>
    <text x="377.74" y="346.08">5</text>
    
    <!-- Row 9 -->
    <text x="22.22" y="390.52">3</text>
    <text x="66.66" y="390.52">4</text>
    <text x="111.10" y="390.52">5</text>
    <text x="155.54" y="390.52">2</text>
    <text x="200.98" y="390.52">8</text>
    <text x="244.42" y="390.52">6</text>
    <text x="288.86" y="390.52">1</text>
    <text x="333.30" y="390.52">7</text>
    <text x="377.74" y="390.52">9</text>
  </g>
</svg>